<?xml version="1.0" encoding="UTF-8" standalone="no"?>
<svg
   xmlns:dc="http://purl.org/dc/elements/1.1/"
   xmlns:cc="http://creativecommons.org/ns#"
   xmlns:rdf="http://www.w3.org/1999/02/22-rdf-syntax-ns#"
   xmlns:svg="http://www.w3.org/2000/svg"
   xmlns="http://www.w3.org/2000/svg"
   xmlns:sodipodi="http://sodipodi.sourceforge.net/DTD/sodipodi-0.dtd"
   xmlns:inkscape="http://www.inkscape.org/namespaces/inkscape"
   inkscape:version="1.0 (4035a4fb49, 2020-05-01)"
   sodipodi:docname="llinkkitorni.svg"
   id="svg8"
   version="1.1"
   viewBox="0 0 210 297"
   height="297mm"
   width="210mm">
  <defs
     id="defs2">
    <rect
       id="rect90"
       height="29.934187"
       width="34.050138"
       y="25.818236"
       x="31.056719" />
  </defs>
  <sodipodi:namedview
     inkscape:window-maximized="1"
     inkscape:window-y="-8"
     inkscape:window-x="-8"
     inkscape:window-height="1017"
     inkscape:window-width="1920"
     showgrid="false"
     inkscape:document-rotation="0"
     inkscape:current-layer="layer1"
     inkscape:document-units="mm"
     inkscape:cy="593.61796"
     inkscape:cx="48.56793"
     inkscape:zoom="0.35355339"
     inkscape:pageshadow="2"
     inkscape:pageopacity="0.0"
     borderopacity="1.0"
     bordercolor="#666666"
     pagecolor="#ffffff"
     id="base" />
  <metadata
     id="metadata5">
    <rdf:RDF>
      <cc:Work
         rdf:about="">
        <dc:format>image/svg+xml</dc:format>
        <dc:type
           rdf:resource="http://purl.org/dc/dcmitype/StillImage" />
        <dc:title></dc:title>
      </cc:Work>
    </rdf:RDF>
  </metadata>
  <g
     id="layer1"
     inkscape:groupmode="layer"
     inkscape:label="Taso 1">
    <path
       id="path74"
       d="m 62.709254,252.94238 c -0.757079,-0.0931 -1.18118,-0.32655 -1.080606,-0.59494 0.09105,-0.24297 14.323412,-45.82013 31.627471,-101.28256 C 130.77781,30.801489 130.84751,30.579771 131.12907,30.579771 c 0.34817,0 73.32992,220.999919 73.32992,222.054209 0,0.11393 -2.07625,0.20714 -4.61388,0.20714 h -4.61388 l -1.39067,-4.39661 c -3.89084,-12.30077 -10.94823,-35.32658 -12.24264,-39.94341 -0.80778,-2.88117 -1.93883,-6.58553 -2.51345,-8.23191 l -1.04476,-2.99341 -5.96695,0.10765 c -63.28883,1.14185 -84.929471,1.66559 -85.174063,2.06134 -0.148942,0.241 -0.62403,1.78793 -1.055748,3.43763 -2.154981,8.2347 -4.122359,15.29983 -8.597728,30.87567 -2.690476,9.36379 -5.068501,17.57231 -5.284496,18.24115 l -0.392721,1.21608 -3.806299,-0.0599 c -2.093465,-0.0329 -4.367069,-0.1288 -5.052451,-0.21301 z M 139.8154,188.42179 c 9.20699,-0.24585 16.69989,-0.48584 16.65089,-0.53332 -0.4053,-0.39271 -20.468,-8.45042 -21.04302,-8.45143 -0.69071,-0.001 -23.33926,9.23563 -23.76026,9.69024 -0.10289,0.11112 2.4228,0.0984 5.61266,-0.0282 3.18987,-0.12665 13.33274,-0.43142 22.53973,-0.67726 z m -28.90074,-8.95703 c 6.27683,-2.84386 11.41241,-5.28235 11.41241,-5.41887 0,-0.32272 -24.497025,-10.3953 -24.72571,-10.16662 -0.208269,0.20827 -7.266453,24.08647 -7.266453,24.58279 0,0.18981 2.062652,-0.59354 4.583671,-1.74077 2.521021,-1.14723 9.719262,-4.41267 15.996082,-7.25653 z m 60.37671,-3.48175 c -1.80063,-5.68635 -3.39325,-10.29366 -3.53914,-10.23847 -3.48264,1.3174 -20.16459,8.3968 -20.16609,8.55798 -0.002,0.26045 26.67957,12.31885 26.85971,12.13871 0.0657,-0.0657 -1.35384,-4.77187 -3.15448,-10.45822 z m -22.30754,-13.78256 c 7.86989,-3.55209 14.31042,-6.55829 14.31228,-6.68044 0.002,-0.12215 -7.12325,-3.03842 -15.83358,-6.48061 l -15.83694,-6.25853 -14.09724,5.69774 c -7.75348,3.13375 -14.09724,5.81649 -14.09724,5.96165 0,0.21377 30.41679,14.11681 31.05672,14.19554 0.1029,0.0127 6.6261,-2.88325 14.496,-6.43535 z m 11.05224,-21.89317 c -1.33535,-4.2703 -2.46437,-7.80431 -2.50892,-7.85334 -0.10386,-0.11431 -14.40613,5.62677 -15.38241,6.17466 -0.72792,0.40851 -0.72779,0.41487 0.0137,0.69655 0.4116,0.15636 5.12623,2.18366 10.47696,4.50512 5.35074,2.32146 9.7511,4.22541 9.77859,4.23101 0.0275,0.006 -1.04259,-3.4837 -2.37794,-7.754 z m -47.6679,3.08696 c 5.15552,-2.26377 9.37906,-4.2037 9.38565,-4.31096 0.0195,-0.3179 -14.9422,-6.11655 -15.17677,-5.88198 -0.22172,0.22172 -4.25125,13.6903 -4.26229,14.24653 -0.008,0.39495 -0.86252,0.73957 10.05341,-4.05359 z m 30.59296,-13.53102 c 5.93826,-2.60582 10.92603,-4.84818 11.08393,-4.98302 0.1579,-0.13485 -4.51726,-2.05844 -10.38925,-4.27466 l -10.67636,-4.02948 -10.81508,4.61497 c -5.94829,2.53823 -10.7436,4.68645 -10.65623,4.77381 0.37076,0.37077 19.4805,8.57558 20.04058,8.60448 0.33857,0.0175 5.47415,-2.10028 11.41241,-4.7061 z m -25.36102,-12.15307 c 4.04041,-1.88129 7.4807,-3.53964 7.6451,-3.6852 0.1644,-0.14557 -2.41433,-1.28568 -5.7305,-2.53359 -4.66663,-1.75609 -6.07414,-2.15233 -6.22733,-1.75312 -0.55887,1.45639 -3.3558,11.39245 -3.20689,11.39245 0.0954,0 3.47921,-1.53924 7.51962,-3.42054 z m 34.95046,-1.16313 c -0.52783,-1.69783 -1.23982,-4.01305 -1.58221,-5.14494 -0.3424,-1.13189 -0.7511,-2.04503 -0.90823,-2.0292 -0.15713,0.0158 -2.64166,1.02297 -5.52118,2.23809 -3.96317,1.67241 -5.07044,2.28156 -4.55635,2.50661 2.52374,1.10474 13.074,5.46603 13.27733,5.48861 0.13768,0.0153 -0.18153,-1.36134 -0.70936,-3.05917 z m -12.16935,-9.49524 c 4.27025,-1.98108 7.82405,-3.65468 7.89734,-3.71913 0.0733,-0.0644 -2.73665,-9.177781 -6.24432,-20.251858 -8.77543,-27.704946 -10.64244,-33.417975 -10.92094,-33.417975 -0.29821,0 -0.94183,2.123355 -9.34209,30.820518 -3.72705,12.732435 -6.70586,23.220485 -6.61957,23.306775 0.36824,0.36824 16.21572,6.81423 16.81059,6.83774 0.3602,0.0142 4.14875,-1.595 8.41899,-3.57607 z"
       style="fill:#000000;stroke:none;stroke-width:0.374176" />
    <text
       id="text78"
       y="25.630299"
       x="-63.708061"
       style="font-style:normal;font-weight:normal;font-size:5.29165px;line-height:1.25;font-family:sans-serif;fill:#000000;fill-opacity:1;stroke:none;stroke-width:0.132291"
       xml:space="preserve"><tspan
         style="stroke-width:0.132291"
         y="25.630299"
         x="-63.708061"
         id="tspan76"
         sodipodi:role="line" /></text>
    <text
       id="text82"
       y="21.140171"
       x="35.074753"
       style="font-style:normal;font-weight:normal;font-size:5.29165px;line-height:1.25;font-family:sans-serif;fill:#000000;fill-opacity:1;stroke:none;stroke-width:0.132291"
       xml:space="preserve"><tspan
         style="stroke-width:0.132291"
         y="21.140171"
         x="35.074753"
         id="tspan80"
         sodipodi:role="line" /></text>
    <text
       style="fill:black;fill-opacity:1;line-height:1.25;stroke:none;font-family:sans-serif;font-style:normal;font-weight:normal;font-size:10.58333333px;white-space:pre;shape-inside:url(#rect90);"
       id="text88"
       xml:space="preserve" />
  </g>
</svg>
